HIERARCHY
ROOT pelvis
{
  OFFSET 0 100 0
  CHANNELS 6 Xposition Yposition Zposition Zrotation Xrotation Yrotation
  JOINT pelvis_right_femur
  {
    OFFSET -10.78128 -3.44521 -0.5502486
    CHANNELS 3 Zrotation Xrotation Yrotation
    JOINT right_femur_tibia
    {
      OFFSET -0.8047443 -44.0398 -0.1307829
      CHANNELS 3 Zrotation Xrotation Yrotation
      JOINT right_tibia_foot
      {
        OFFSET 3.006224 -47.83518 -5
        CHANNELS 3 Zrotation Xrotation Yrotation
        End Site
        {
          OFFSET 0 -5 15
        }
      }
    }
  }
  JOINT pelvis_left_femur
  {
    OFFSET 10.78128 -3.44521 -0.5502486
    CHANNELS 3 Zrotation Xrotation Yrotation
    JOINT left_femur_tibia
    {
      OFFSET 0.8047443 -44.0398 -0.1307829
      CHANNELS 3 Zrotation Xrotation Yrotation
      JOINT left_tibia_foot
      {
        OFFSET -4.370144 -48.10324 -4.275266
        CHANNELS 3 Zrotation Xrotation Yrotation
        End Site
        {
          OFFSET 0 -5 15
        }
      }
    }
  }
  JOINT pelvis_spine1
  {
    OFFSET 0 6.468898 -3.129235
    CHANNELS 3 Zrotation Xrotation Yrotation
    JOINT spine1
    {
      OFFSET 0 23.15396 4.99043
      CHANNELS 3 Zrotation Xrotation Yrotation
      JOINT spine2
      {
        OFFSET 0 20.79997 -5.064912
        CHANNELS 3 Zrotation Xrotation Yrotation
        JOINT neck
        {
          OFFSET 0 14.38658 9.616178
          CHANNELS 3 Zrotation Xrotation Yrotation
          End Site
          {
            OFFSET 0 20 0
          }
        }
      }
      JOINT right_manubrium
      {
        OFFSET -5.722621 16.35077 3.967754
        CHANNELS 3 Zrotation Xrotation Yrotation
        JOINT right_clavicle
        {
          OFFSET -13.16364 1.694482 -4.693211
          CHANNELS 3 Zrotation Xrotation Yrotation
          JOINT right_humerus
          {
            OFFSET -28.5034 -0.3100689 -2.792744
            CHANNELS 3 Zrotation Xrotation Yrotation
            JOINT right_radius
            {
              OFFSET -25.15693 0.02248979 -1.271978
              CHANNELS 3 Zrotation Xrotation Yrotation
              End Site
              {
                OFFSET -15 0 0
              }
            }
          }
        }
      }
      JOINT left_manubrium
      {
        OFFSET 5.722621 16.35077 3.967754
        CHANNELS 3 Zrotation Xrotation Yrotation
        JOINT left_clavicle
        {
          OFFSET 13.16364 1.694482 -4.693211
          CHANNELS 3 Zrotation Xrotation Yrotation
          JOINT left_humerus
          {
            OFFSET 29.39168 -1.063119 -2.237045
            CHANNELS 3 Zrotation Xrotation Yrotation
            JOINT left_radius
            {
              OFFSET 24.59957 -0.9528479 0.9047498
              CHANNELS 3 Zrotation Xrotation Yrotation
              End Site
              {
                OFFSET 15 -0 -0
              }
            }
          }
        }
      }
    }
  }
}
MOTION
Frames: 17
Frame Time: 0.0416666666667
2261.551 102.8148 1427.013 5.625498 3.163084 111.6126 4.727872 3.816909 5.807208 -0 12.85102 -0 -2.544669 -12.53752 -3.481125 -1.638377 -14.42807 -6.140451 -0 52.89967 -0 -8.122296 -6.717191 16.30088 -0.8592524 1.662226 7.369682 0.2030453 10.07865 -4.239198 1.878385 22.74953 5.689342 3.00281 -18.24701 6.958922 3.430201 -17.55485 11.55619 84.3286 29.36026 -14.05265 -0 0 15.33652 -19.41 13.13627 9.991801 4.991319 -18.29507 -2.161745 -91.73287 24.71176 19.55384 0 0 -16.02007 0.7815703 7.767484 12.80513
2266.738 102.4095 1424.715 5.923402 3.423289 110.9787 4.345204 8.20807 5.843575 -0 11.83693 -0 -1.136497 -14.67519 -2.963373 -0.2500101 -20.17137 -4.758505 -0 45.39791 -0 -8.04514 -7.140598 17.54095 -0.8560054 1.936474 7.896195 -0.4073365 9.78799 -3.35753 1.945259 22.77233 5.641149 2.755209 -17.67708 7.03888 2.561796 -18.66648 11.58923 82.6626 28.08694 -11.17865 -0 0 18.2027 -21.58087 13.2593 11.38807 5.233451 -17.32202 -2.013192 -92.44628 24.46561 21.03424 0 0 -15.25145 -0.114594 7.151071 13.75657
2272.081 101.4893 1422.256 5.95827 3.300355 110.3813 4.078031 11.96044 5.829583 -0 11.84631 -0 0.5808941 -16.05241 -2.411647 1.108737 -24.3256 -3.253795 -0 36.83011 -0 -7.750492 -7.444939 18.62898 -0.7836453 1.887367 8.217572 -0.8188397 9.534267 -2.874832 1.938662 22.55294 5.64973 2.428789 -17.49386 7.170563 1.697248 -19.82789 11.5509 81.38811 26.85472 -8.838388 -0 0 20.78652 -23.8484 13.41327 12.92294 5.280014 -16.47859 -1.915656 -92.84869 24.3904 22.41406 0 0 -14.87073 -1.152601 6.284739 15.08499
2277.72 100.3633 1419.536 5.655123 3.030794 109.8317 3.570677 15.08465 5.678704 -0 13.5368 -0 2.115761 -16.24383 -1.81238 1.696464 -26.54912 -2.426699 -0 28.78486 -0 -7.232038 -7.735254 19.39893 -0.8921304 1.49678 8.432733 -1.03015 9.265564 -2.725351 1.898472 22.23233 5.713139 2.222262 -17.64687 7.287886 1.058637 -20.77027 11.34791 80.45776 26.04366 -7.108196 -0 0 22.76254 -25.64955 13.26573 14.19875 5.175787 -15.72812 -1.808405 -93.17288 24.47489 23.72599 0 0 -14.10959 -2.038853 5.439235 16.27383
2283.733 99.36896 1416.476 5.146427 2.969351 109.3831 2.532613 17.56922 5.429685 -0 17.41577 -0 2.923106 -14.54731 -1.268523 0.9887957 -26.87087 -2.960178 -0 23.04316 -0 -6.590827 -8.026486 19.82506 -1.362753 0.8355849 8.618488 -1.175744 9.012498 -2.689011 1.924691 21.98372 5.802851 2.320578 -17.93608 7.348107 0.752304 -21.23216 10.97202 79.96699 25.79128 -6.039412 -0 0 23.82588 -26.64989 12.65584 14.89283 5.025884 -15.04852 -1.734736 -93.59792 24.55574 24.9416 0 0 -12.43016 -2.495587 4.966776 16.84634
2290.088 98.77657 1413.078 4.720171 3.301154 109.1459 1.122126 19.0864 5.31123 -0 23.6943 -0 2.791513 -10.54567 -1.037915 -0.7573227 -25.56964 -4.60554 -0 20.57332 -0 -5.849706 -8.266612 19.9231 -2.127133 0.03750954 8.780951 -1.372229 8.998126 -2.653022 2.059952 21.81955 5.821158 2.655735 -18.23551 7.314443 0.7028053 -21.29224 10.59165 80.25909 25.78245 -5.830489 -0 0 23.95017 -26.81714 11.77259 14.98784 4.832679 -14.57566 -1.832071 -94.11178 24.46451 26.14294 0 0 -10.24226 -2.514486 4.910357 16.89647
2296.616 98.77416 1409.452 4.551991 3.831893 109.2584 -0.05987424 18.86037 5.466562 -0 32.08712 -0 2.130221 -5.064495 -1.349126 -2.725712 -22.90216 -6.338078 -0 20.83989 -0 -4.989487 -8.542848 19.60819 -2.881259 -0.7158896 8.827925 -1.552944 9.413699 -2.771946 2.184796 21.60126 5.723427 2.927461 -18.58092 7.192361 0.8778068 -21.2576 10.43577 81.44564 25.71234 -6.647401 -0 0 23.39358 -26.2829 11.13707 14.70036 4.50388 -14.53026 -2.138788 -94.48489 24.22329 27.33405 0 0 -8.65669 -2.327738 4.989964 16.94556
2303.058 99.41828 1405.783 4.665773 4.237435 109.7924 -0.52295 16.27368 5.646837 -0 41.27551 -0 1.67839 -0.2142743 -2.265088 -4.255673 -19.07569 -7.391657 -0 22.23932 -0 -4.200769 -9.127343 18.91095 -3.331534 -1.157127 8.569757 -1.578862 10.05017 -3.183396 2.153613 21.36458 5.64465 2.902393 -18.88422 7.135668 1.339599 -21.11691 10.52043 83.03713 25.71306 -8.195386 -0 0 22.34556 -25.38354 11.21634 14.25353 4.076028 -14.90593 -2.512795 -94.30044 24.05526 27.82543 0 0 -8.386403 -2.098542 5.054983 17.15066
2309.199 100.5277 1402.249 5.172044 4.470432 110.6885 -0.3294401 11.59384 5.482444 -0 48.9482 -0 1.820595 2.099359 -3.690747 -5.139519 -14.32201 -7.748665 -0 23.10143 -0 -3.778327 -10.17889 18.15209 -3.390598 -1.047021 7.820814 -1.443248 10.44263 -3.761209 1.99615 21.40547 5.715627 2.561226 -18.80496 7.332517 1.844511 -20.54903 10.60301 84.56037 25.75572 -9.887127 -0 0 20.85098 -24.56586 11.84495 13.77693 3.758115 -15.4277 -2.859768 -93.1359 24.1559 26.43984 0 0 -9.317052 -1.814375 5.120531 17.11448
2314.965 101.7396 1398.946 6.150551 4.742639 111.8056 0.06419795 5.829586 4.940984 -0 53.20394 -0 2.191122 1.841727 -5.320137 -5.501273 -8.938158 -7.801324 -0 22.53267 -0 -3.720716 -11.5377 17.57573 -3.16849 -0.4696462 6.622156 -1.250086 10.43017 -4.329191 1.866316 21.86911 5.833945 2.034841 -18.17083 7.720725 1.84185 -19.55426 10.47777 86.12911 25.22301 -11.4486 -0 0 19.12374 -23.96078 12.25719 13.30637 3.692884 -15.93144 -3.300269 -91.0183 24.43609 22.92571 0 0 -10.99877 -1.459985 5.110544 16.56303
2320.405 102.7422 1395.867 7.263504 5.100979 113.0189 0.3175195 -0.1211175 4.251109 -0 53.75292 -0 2.205732 0.4941859 -6.764263 -5.563369 -3.408791 -7.872298 -0 20.6911 -0 -3.823283 -12.98967 17.06229 -2.839361 0.194521 5.291422 -1.049199 10.23578 -4.898864 1.835343 22.50481 5.867895 1.533708 -17.3067 8.076093 1.226231 -18.51599 10.20672 87.87207 23.9695 -12.99021 -0 0 17.49375 -23.44905 12.10596 12.82879 3.84916 -16.56139 -3.918612 -88.57034 24.69145 18.49489 0 0 -13.11958 -1.102613 5.088226 15.74325
2325.596 103.3819 1392.957 7.985892 5.34185 114.2568 0.3816086 -5.903819 3.574512 -0 51.45781 -0 1.806863 -0.8218037 -7.814053 -5.483269 1.724623 -8.085873 -0 18.24521 -0 -4.042226 -14.50295 16.41877 -2.524832 0.667114 4.14479 -0.8226704 10.03106 -5.529567 1.858853 22.98721 5.893194 1.235162 -16.63837 8.331714 0.4844727 -17.6548 9.947256 89.45693 22.77556 -14.59878 -0 0 16.11396 -23.05285 11.85577 12.34807 4.158561 -17.44587 -4.568993 -86.41076 24.90981 14.45157 0 0 -15.5041 -0.8148953 5.343855 15.01958
2330.603 103.5989 1390.16 8.080434 5.307711 115.4758 0.326524 -11.45202 2.963131 -0 47.28961 -0 1.278285 -1.912018 -8.472815 -5.340947 6.182088 -8.464271 -0 15.7484 -0 -4.443524 -16.10712 15.61273 -2.274324 0.9060956 3.305713 -0.5649733 9.805508 -6.196678 1.892496 23.18985 6.019845 1.186953 -16.30056 8.546812 0.04396827 -16.92526 9.756034 90.55432 22.32263 -16.25174 -0 0 14.9899 -22.81094 11.98312 11.85615 4.593452 -18.50874 -5.064565 -84.74123 25.19388 11.24741 0 0 -18.01607 -0.6256394 6.01852 14.53897
2335.483 103.3776 1387.434 7.575494 4.97464 116.6363 0.2295891 -16.71346 2.448058 -0 41.86067 -0 0.8224906 -2.901544 -8.827185 -5.175499 9.924877 -8.982493 -0 13.56337 -0 -5.053566 -17.77469 14.7001 -2.102455 0.9703013 2.767544 -0.2896655 9.502328 -6.839771 1.935087 23.12413 6.255672 1.352426 -16.23508 8.760604 0.03128126 -16.22329 9.610562 91.10654 22.78817 -17.90319 -0 0 14.08284 -22.62648 12.58587 11.31404 5.145823 -19.59981 -5.306401 -83.51463 25.60904 8.807228 0 0 -20.53041 -0.5186031 7.020269 14.27834
2340.302 102.741 1384.745 6.603474 4.406158 117.7035 0.1506151 -21.5048 2.055404 -0 35.56655 -0 0.514261 -3.838424 -8.959698 -5.013299 12.96917 -9.564618 -0 12.01092 -0 -5.833897 -19.38475 13.74637 -2.02033 0.93305 2.479299 -0.01328957 9.093943 -7.396599 2.000851 22.84567 6.549264 1.672118 -16.33622 8.97143 0.410841 -15.47243 9.478618 91.20822 24.08467 -19.47826 -0 0 13.32355 -22.37693 13.55456 10.70115 5.792812 -20.576 -5.272965 -82.62193 26.1101 6.92927 0 0 -22.8871 -0.4245563 8.141529 14.10779
2345.16 101.7489 1382.052 5.393552 3.764369 118.6544 0.1097961 -25.42401 1.772705 -0 28.86697 -0 0.3717154 -4.63212 -8.95053 -4.882196 15.33155 -10.05718 -0 11.42799 -0 -6.673973 -20.70133 12.82582 -2.042258 0.8646579 2.361189 0.2466587 8.607413 -7.804937 2.094086 22.44938 6.826984 2.064274 -16.47144 9.148436 1.048137 -14.6367 9.350458 91.03497 25.92134 -20.85294 -0 0 12.5874 -22.04211 14.69374 10.06466 6.467939 -21.31518 -5.026752 -81.91731 26.48605 5.3623 0 0 -24.8667 -0.2071948 9.112978 13.78076
2350.199 100.4945 1379.298 4.290083 3.312752 119.4851 0.07613422 -27.89602 1.539253 -0 22.43709 -0 0.4123076 -5.130519 -8.915981 -4.808736 17.08265 -10.23225 -0 12.10796 -0 -7.37772 -21.396 12.04992 -2.178051 0.8039642 2.306868 0.4780217 8.139139 -8.026061 2.196026 22.07778 7.00146 2.408583 -16.49298 9.236057 1.708697 -13.73652 9.251893 90.83306 27.75402 -21.90144 -0 0 11.68056 -21.7613 15.76522 9.532861 7.053311 -21.75408 -4.721924 -81.21056 26.37216 3.801343 0 0 -26.27471 0.3092541 9.652531 12.97559
